# xmcd CD database file
#
# Track frame offsets:
#	150
#	33437
#	61565
#	93142
#	120242
#	149147
#	185387
#
# Disc length: 2871 seconds
#
# Revision: 0
# Processed by: cddbd v1.4PL0 Copyright (c) Steve Scherf et al.
# Submitted via: CDex 1.50
#
DISCID=530b3507
DTITLE=Jimmy Heath - Peer Pleasure
DYEAR=1987
DGENRE=Jazz
TTITLE0=Trane Connections
TTITLE1=Song For Ben Webster
TTITLE2=You Can See
TTITLE3=Is That So?
TTITLE4=Ellington's Stray Horn
TTITLE5=Forever Sonny
TTITLE6=I Waited For You
EXTD=YEAR: 1987
EXTT0=
EXTT1=
EXTT2=
EXTT3=
EXTT4=
EXTT5=
EXTT6=
PLAYORDER=
